{
  "accessors": [
    {
      "bufferView": 2,
      "componentType": 5126,
      "count": 1073,
      "max": [
        47.499992370605469,
        9.4700222015380859,
        77.780784606933594
      ],
      "min": [
        -47.499992370605469,
        -50.307502746582031,
        -14.941159248352051
      ],
      "type": "VEC3"
    },
    {
      "bufferView": 2,
      "byteOffset": 12876,
      "componentType": 5126,
      "count": 1073,
      "max": [
        0.99583190679550171,
        0.9996565580368042,
        0.99895399808883667
      ],
      "min": [
        -0.99583202600479126,
        -0.99920541048049927,
        -0.9998435378074646
      ],
      "type": "VEC3"
    },
    {
      "bufferView": 3,
      "componentType": 5126,
      "count": 1073,
      "max": [
        0.99998313188552856,
        0.99651640653610229,
        0.97035926580429077,
        1
      ],
      "min": [
        -0.99519574642181396,
        -0.99916905164718628,
        -0.99421679973602295,
        1
      ],
      "type": "VEC4"
    },
    {
      "bufferView": 1,
      "componentType": 5126,
      "count": 1073,
      "max": [
        0.99477744102478027,
        0.98858124017715454
      ],
      "min": [
        0.016073470935225487,
        0.011149464175105095
      ],
      "type": "VEC2"
    },
    {
      "bufferView": 1,
      "byteOffset": 8584,
      "componentType": 5126,
      "count": 1073,
      "max": [
        0.99477744102478027,
        0.98858124017715454
      ],
      "min": [
        0.016073470935225487,
        0.011149464175105095
      ],
      "type": "VEC2"
    },
    {
      "bufferView": 1,
      "byteOffset": 17168,
      "componentType": 5126,
      "count": 1073,
      "max": [
        0.99477744102478027,
        0.98858124017715454
      ],
      "min": [
        0.016073470935225487,
        0.011149464175105095
      ],
      "type": "VEC2"
    },
    {
      "bufferView": 0,
      "componentType": 5125,
      "count": 5016,
      "max": [
        1072
      ],
      "min": [
        0
      ],
      "type": "SCALAR"
    }
  ],
  "asset": {
    "extras": {
      "author": "bariacg (https://sketchfab.com/bariacg)",
      "license": "SKETCHFAB Standard (https://sketchfab.com/licenses)",
      "source": "https://sketchfab.com/3d-models/cat-face-fe71927fbb6246bb9e721327085bf10f",
      "title": "Cat Face"
    },
    "generator": "Sketchfab-9.6.0",
    "version": "2.0"
  },
  "bufferViews": [
    {
      "buffer": 0,
      "byteLength": 20064,
      "byteOffset": 0,
      "name": "floatBufferViews",
      "target": 34963
    },
    {
      "buffer": 0,
      "byteLength": 25752,
      "byteOffset": 20064,
      "byteStride": 8,
      "name": "floatBufferViews",
      "target": 34962
    },
    {
      "buffer": 0,
      "byteLength": 25752,
      "byteOffset": 45816,
      "byteStride": 12,
      "name": "floatBufferViews",
      "target": 34962
    },
    {
      "buffer": 0,
      "byteLength": 17168,
      "byteOffset": 71568,
      "byteStride": 16,
      "name": "floatBufferViews",
      "target": 34962
    }
  ],
  "buffers": [
    {
      "byteLength": 88736,
      "uri": "scene.bin"
    }
  ],
  "images": [
    {
      "uri": "textures/AnimalFace_Cat_baseColor.png"
    },
    {
      "uri": "textures/AnimalFace_Cat_metallicRoughness.png"
    },
    {
      "uri": "textures/AnimalFace_Cat_normal.png"
    }
  ],
  "materials": [
    {
      "doubleSided": true,
      "emissiveFactor": [
        0,
        0,
        0
      ],
      "name": "AnimalFace_Cat",
      "normalTexture": {
        "index": 2,
        "scale": 1,
        "texCoord": 0
      },
      "pbrMetallicRoughness": {
        "baseColorFactor": [
          1,
          1,
          1,
          1
        ],
        "baseColorTexture": {
          "index": 0,
          "texCoord": 0
        },
        "metallicFactor": 0,
        "metallicRoughnessTexture": {
          "index": 1,
          "texCoord": 0
        },
        "roughnessFactor": 1
      }
    }
  ],
  "meshes": [
    {
      "name": "AnimalFace_Cat_AnimalFace_Cat_0",
      "primitives": [
        {
          "attributes": {
            "NORMAL": 1,
            "POSITION": 0,
            "TANGENT": 2,
            "TEXCOORD_0": 3,
            "TEXCOORD_1": 4,
            "TEXCOORD_2": 5
          },
          "indices": 6,
          "material": 0,
          "mode": 4
        }
      ]
    }
  ],
  "nodes": [
    {
      "children": [
        1
      ],
      "name": "RootNode (gltf orientation matrix)",
      "rotation": [
        -0.70710678118654746,
        -0,
        -0,
        0.70710678118654757
      ]
    },
    {
      "children": [
        2
      ],
      "name": "RootNode (model correction matrix)"
    },
    {
      "children": [
        3
      ],
      "matrix": [
        1,
        0,
        0,
        0,
        0,
        0,
        1,
        0,
        0,
        -1,
        0,
        0,
        0,
        0,
        0,
        1
      ],
      "name": "cf1a4731eac64a278b9a4daab3fc61fa.fbx"
    },
    {
      "children": [
        4
      ],
      "name": "RootNode"
    },
    {
      "children": [
        5
      ],
      "matrix": [
        1,
        0,
        0,
        0,
        0,
        2.2204460492503131e-16,
        -1,
        0,
        0,
        1,
        2.2204460492503131e-16,
        0,
        0,
        0,
        0,
        1
      ],
      "name": "AnimalFace_Cat"
    },
    {
      "mesh": 0,
      "name": "AnimalFace_Cat_AnimalFace_Cat_0"
    }
  ],
  "samplers": [
    {
      "magFilter": 9729,
      "minFilter": 9987,
      "wrapS": 10497,
      "wrapT": 10497
    }
  ],
  "scene": 0,
  "scenes": [
    {
      "name": "OSG_Scene",
      "nodes": [
        0
      ]
    }
  ],
  "textures": [
    {
      "sampler": 0,
      "source": 0
    },
    {
      "sampler": 0,
      "source": 1
    },
    {
      "sampler": 0,
      "source": 2
    }
  ]
}

